<?xml version="1.0" encoding="utf-8"?>
<!-- Generator: Adobe Illustrator 17.1.0, SVG Export Plug-In . SVG Version: 6.00 Build 0)  -->
<!DOCTYPE svg PUBLIC "-//W3C//DTD SVG 1.1//EN" "http://www.w3.org/Graphics/SVG/1.1/DTD/svg11.dtd">
<svg version="1.1" xmlns="http://www.w3.org/2000/svg" xmlns:xlink="http://www.w3.org/1999/xlink" x="0px" y="0px"
	 viewBox="0 0 1024 1024" enable-background="new 0 0 1024 1024" xml:space="preserve">
<g id="Laag_1" image-rendering="optimizeQuality" text-rendering="geometricPrecision" shape-rendering="geometricPrecision">
	<title>folder icon</title>
	<desc>folder icon from the IconExperience.com O-Collection. Copyright by INCORS GmbH (www.incors.com).</desc>
	<path id="curve0" fill="white" d="M363,128c35.2,0,65.6,12.6,90.5,37.5l53,53c24.9,24.9,55.3,37.5,90.5,37.5h171
		c35.3,0,64,28.8,64,64v32h-64v-32H597c-52.2,0-98.8-19.3-135.7-56.2l-53.1-53.1c-12.9-12.9-27-18.7-45.2-18.7H128.1
		c-0.1,0-0.1,0-0.1,0.1V800c0,17.6,14.4,32,32,32s32-14.4,32-32c0-117.3,0-234.7,0-352c0-35.3,28.7-64,64-64h512h64l0,0
		c35.3,0,64,28.7,64,64c0,106.7,0,213.3,0,320c0,70.5-57.5,128-128,128H160c-52.9,0-96-43.1-96-96c0-202.7,0-405.3,0-608
		c0-35.3,28.7-64,64-64C206.3,128,284.7,128,363,128z"/>
</g>
</svg>
