<?xml version="1.0" encoding="utf-8"?>
<!-- Generator: Adobe Illustrator 17.1.0, SVG Export Plug-In . SVG Version: 6.00 Build 0)  -->
<!DOCTYPE svg PUBLIC "-//W3C//DTD SVG 1.1//EN" "http://www.w3.org/Graphics/SVG/1.1/DTD/svg11.dtd">
<svg version="1.1" xmlns="http://www.w3.org/2000/svg" xmlns:xlink="http://www.w3.org/1999/xlink" x="0px" y="0px"
	 viewBox="530.9 116.3 393 393" enable-background="new 530.9 116.3 393 393" xml:space="preserve">
<g id="Laag_5">
	<g>
		<path fill="#6D4A8A" d="M906.2,313.6c0,50.1-17.7,92.8-53.2,128.1s-78.2,53.1-128.3,53.1c-50.1,0-92.8-17.7-128.3-53.1
			s-53.2-78.1-53.2-128.1s17.7-92.8,53.2-128.3s78.2-53.2,128.3-53.2c50.1,0,92.8,17.7,128.3,53.2S906.2,263.6,906.2,313.6z
			 M876.5,313.6c0-41.9-14.8-77.8-44.4-107.4c-29.6-29.7-65.4-44.5-107.3-44.5c-41.9,0-77.8,14.8-107.4,44.5s-44.5,65.5-44.5,107.4
			c0,41.9,14.8,77.7,44.5,107.3c29.7,29.6,65.5,44.4,107.4,44.4c41.9,0,77.7-14.8,107.3-44.4C861.7,391.3,876.5,355.6,876.5,313.6z
			 M762,220.1c0,9.6-3.7,17.8-11,24.6c-7.3,6.8-16.1,10.2-26.2,10.2c-10.3,0-19.1-3.4-26.4-10.2c-7.2-6.8-10.9-15-10.9-24.6
			c0-9.6,3.6-17.8,10.9-24.6c7.2-6.8,16-10.2,26.4-10.2c10.2,0,18.9,3.4,26.2,10.2C758.3,202.3,762,210.5,762,220.1z M755.1,449.2
			h-60.9V276.4h60.9V449.2z"/>
	</g>
</g>
</svg>
