<?xml version="1.0" encoding="utf-8"?>
<!-- Generator: Adobe Illustrator 17.1.0, SVG Export Plug-In . SVG Version: 6.00 Build 0)  -->
<!DOCTYPE svg PUBLIC "-//W3C//DTD SVG 1.1//EN" "http://www.w3.org/Graphics/SVG/1.1/DTD/svg11.dtd">
<svg version="1.1"
	 id="Laag_1" text-rendering="geometricPrecision" image-rendering="optimizeQuality" shape-rendering="geometricPrecision"
	 xmlns="http://www.w3.org/2000/svg" xmlns:xlink="http://www.w3.org/1999/xlink" x="0px" y="0px" viewBox="0 0 1024 1024"
	 enable-background="new 0 0 1024 1024" xml:space="preserve">
<title>text icon</title>
<desc>text icon from the IconExperience.com O-Collection. Copyright by INCORS GmbH (www.incors.com).</desc>
<path id="curve1" fill="#6D4A8A" d="M128,64h768v896H128V64z M192,128v768h640V128H192z"/>
<path id="curve0" fill="#6D4A8A" d="M576,738.2h192v64H576V738.2z M256,226.2h512v64H256V226.2z M256,354.2h256v64H256V354.2z
	 M256,482.2h512v64H256V482.2z M256,610.2h128v64H256V610.2z M256,738.2h256v64H256V738.2z M576,354.2h192v64H576V354.2z M448,610.2
	h320v64H448V610.2z"/>
</svg>
