<?xml version="1.0" encoding="utf-8"?>
<!-- Generator: Adobe Illustrator 17.1.0, SVG Export Plug-In . SVG Version: 6.00 Build 0)  -->
<!DOCTYPE svg PUBLIC "-//W3C//DTD SVG 1.1//EN" "http://www.w3.org/Graphics/SVG/1.1/DTD/svg11.dtd">
<svg version="1.1" xmlns="http://www.w3.org/2000/svg" xmlns:xlink="http://www.w3.org/1999/xlink" x="0px" y="0px"
	 viewBox="0 0 468.2 402.2" enable-background="new 0 0 468.2 402.2" xml:space="preserve">
<g id="Laag_1" display="none">
	<g display="inline">
		<g>
			<path fill="#FFFFFF" d="M481.5,402.2c-156,0-312,0-468.2,0c0-133.9,0-267.9,0-402.2c155.9,0,312.1,0,468.2,0
				C481.5,134,481.5,268.1,481.5,402.2z M215.3,63.8c-12.1,13.6-18.1,29.1-36.5,31.6c-25,3.5-49.9,7.9-74.5,13.6
				c-7.5,1.8-17.2,7.5-20,14C68.4,159,53.5,195.4,39.8,232.2c-9.1,24.3,8.7,49.4,34.1,47.5c16.3-1.2,28.3,4.5,40.6,12.9
				c6,4.2,12.4,7.8,19.5,12.3c8.4-11.5,16.9-22,24.2-33.3c4.7-7.2,9-7.8,16.2-4c22,11.7,44.8,21.9,66.3,34.4
				c30,17.5,61,21.8,94.5,13.4c21-5.2,42.4-8.9,63.5-13.2c6.9,25.8,6.9,25.9,33.8,22.9c8.1-0.9,16-2.5,24.5-3.9
				c-8.3-56-16.4-110.4-24.6-165.3c-11,1.9-20.2,1.7-27.9,5c-24.9,10.8-44.8,2.3-63.7-13.4c-3.7-3.1-8.1-5.1-12.2-7.7
				c-20.9-13.4-42.1-26.6-62.7-40.4C248.9,88.1,232.5,75.9,215.3,63.8z M77.6,294.6c-2,4.7-3.7,7.6-4.5,10.8
				c-4.4,18-8.6,35.9-12.5,54c-0.4,1.9,1.4,5.7,2.9,6.2c1.8,0.5,4.6-1.3,6.5-2.7c6.7-5.2,13.2-10.8,19.9-16.2c10-8,20-16,31.4-25
				C105.3,311.7,91.9,303.4,77.6,294.6z M271.7,74.6c9.4-22,8-36.3-3.3-42.8c-9.3-5.4-26.8,2.6-37.1,17.6
				C244.5,57.6,257.6,65.8,271.7,74.6z"/>
			<path d="M215.3,63.8c17.2,12.1,33.6,24.3,50.5,35.6c20.7,13.8,41.8,27,62.7,40.4c4.1,2.6,8.5,4.7,12.2,7.7
				c18.9,15.8,38.9,24.2,63.7,13.4c7.7-3.3,16.9-3.2,27.9-5c8.2,55,16.3,109.4,24.6,165.3c-8.5,1.4-16.5,3-24.5,3.9
				c-26.9,3-26.9,2.9-33.8-22.9c-21.1,4.3-42.5,8-63.5,13.2c-33.5,8.3-64.5,4-94.5-13.4c-21.5-12.5-44.3-22.7-66.3-34.4
				c-7.2-3.8-11.5-3.2-16.2,4c-7.3,11.3-15.8,21.8-24.2,33.3c-7.1-4.5-13.5-8.1-19.5-12.3c-12.2-8.4-24.3-14.2-40.6-12.9
				c-25.4,1.9-43.2-23.2-34.1-47.5c13.7-36.8,28.6-73.2,44.5-109.1c2.9-6.5,12.5-12.3,20-14c24.6-5.7,49.5-10.2,74.5-13.6
				C197.2,92.9,203.2,77.4,215.3,63.8z M276.7,180.4c-8,11.7-15.6,23.8-24.5,35c-2.1,2.6-8.6,3.4-12.5,2.6
				c-20.4-4.4-40.7-9.5-61-14.6c-14.7-3.7-25.6,0.4-30.5,12c-4.8,11.2-0.5,20.4,14.3,28.1c32.6,16.9,65.2,33.6,98,49.8
				c20.2,10,41.3,12.8,63.6,7.1c19.4-5,39-9.5,58.7-12.9c11.6-2,13.9-7.7,12.2-18c-3.7-22.8-6.7-45.7-10.6-68.4
				c-0.6-3.7-3-8.2-6-10.1c-22.9-14.5-46.1-28.4-69.2-42.6c-17.3-10.6-34.5-21.2-52.2-32c-15.1,27.2-28.7,51.9-42.4,76.7
				c25.7,10.2,25.7,10.2,39.6-11.1C262.6,169.2,263.3,169.1,276.7,180.4z M175.7,113.3c-21.8,3.7-41.8,7.5-61.9,10.4
				c-9.9,1.4-15.3,6.6-18.8,15.5c-12.8,32.5-26.2,64.7-38.4,97.4c-1.9,5.2-0.8,13.2,2,18.1c8.1,13.6,27.4,12.3,36.9-2.7
				c8.6-13.6,15.4-28.4,23.5-42.3C137.2,178.3,155.7,147.2,175.7,113.3z M153.9,183c14,1.8,24.7,3.5,35.4,4.2c3.2,0.2,8.2-1.5,9.7-4
				c15.1-25.9,29.7-52.1,44.8-78.8c-5.1-3.6-8.9-5.7-12.1-8.5c-8.8-7.6-15.3-7.4-22.1,3.3c-9.5,15.1-20.8,29.1-30.7,44
				C170.5,155.7,162.8,168.8,153.9,183z M399.1,179.7c6.5,43.5,12.8,86.4,19.7,132.8c6.7-7.1,19.7,1.3,17.6-13.4
				c-5.1-36.2-11.9-72.1-16.1-108.4C418.5,175.3,411.8,175.2,399.1,179.7z M106.5,267.8c8.3,5,15.9,9.6,23.8,14.4
				c6.6-9.2,12.3-17.3,17.3-24.4c-6.5-9.9-12.3-18.7-19.4-29.5C120.9,241.5,114,254.1,106.5,267.8z"/>
			<path d="M77.6,294.6c14.3,8.9,27.8,17.2,43.7,27.1c-11.4,9.1-21.4,17-31.4,25c-6.7,5.4-13.1,10.9-19.9,16.2
				c-1.9,1.5-4.8,3.2-6.5,2.7c-1.5-0.5-3.3-4.3-2.9-6.2c3.9-18.1,8.1-36,12.5-54C73.9,302.2,75.6,299.2,77.6,294.6z"/>
			<path d="M271.7,74.6c-14.1-8.8-27.2-17-40.4-25.2c10.3-15,27.7-23,37.1-17.6C279.6,38.3,281,52.6,271.7,74.6z"/>
			<path fill="#FFFFFF" d="M276.7,180.4c-13.4-11.3-14.1-11.2-22.5,1.6c-13.9,21.3-13.9,21.3-39.6,11.1
				c13.7-24.8,27.4-49.5,42.4-76.7c17.6,10.8,34.9,21.4,52.2,32c23.1,14.1,46.3,28.1,69.2,42.6c3,1.9,5.4,6.5,6,10.1
				c3.8,22.8,6.8,45.7,10.6,68.4c1.7,10.3-0.6,16-12.2,18c-19.7,3.4-39.3,7.9-58.7,12.9c-22.3,5.7-43.4,2.9-63.6-7.1
				c-32.8-16.3-65.5-33-98-49.8c-14.8-7.6-19-16.8-14.3-28.1c4.9-11.6,15.8-15.7,30.5-12c20.3,5.1,40.6,10.2,61,14.6
				c3.9,0.8,10.4,0,12.5-2.6C261.1,204.2,268.7,192.1,276.7,180.4z"/>
			<path fill="#FFFFFF" d="M175.7,113.3c-20,34-38.5,65.1-56.7,96.3c-8.1,14-14.9,28.7-23.5,42.3c-9.5,14.9-28.8,16.2-36.9,2.7
				c-2.9-4.8-4-12.9-2-18.1c12.2-32.7,25.6-64.9,38.4-97.4c3.5-8.9,8.9-14.1,18.8-15.5C133.9,120.8,153.9,117,175.7,113.3z"/>
			<path fill="#FFFFFF" d="M153.9,183c8.9-14.2,16.6-27.3,25-39.8c10-14.8,21.2-28.9,30.7-44c6.8-10.7,13.3-10.9,22.1-3.3
				c3.2,2.8,7,5,12.1,8.5c-15.1,26.7-29.7,52.9-44.8,78.8c-1.4,2.5-6.5,4.2-9.7,4C178.5,186.5,167.8,184.8,153.9,183z"/>
			<path fill="#FFFFFF" d="M399.1,179.7c12.7-4.5,19.4-4.4,21.2,11c4.3,36.3,11,72.2,16.1,108.4c2.1,14.7-10.9,6.3-17.6,13.4
				C411.9,266,405.5,223.2,399.1,179.7z"/>
			<path fill="#FFFFFF" d="M106.5,267.8c7.5-13.7,14.4-26.3,21.7-39.5c7.1,10.8,12.9,19.6,19.4,29.5c-5,7.1-10.8,15.1-17.3,24.4
				C122.3,277.4,114.7,272.8,106.5,267.8z"/>
		</g>
	</g>
</g>
<g id="Laag_1_kopie">
	<path display="none" fill="none" d="M204.3,75.8c-11.2,12.6-16.8,27-33.8,29.3c-23.2,3.2-46.3,7.3-69,12.6c-7,1.6-15.9,7-18.6,13
		c-14.7,33.2-28.5,67-41.2,101c-8.4,22.5,8.1,45.8,31.6,44c15.1-1.1,26.2,4.2,37.6,12c5.6,3.8,11.5,7.3,18.1,11.4
		c7.8-10.6,15.7-20.4,22.4-30.8c4.3-6.6,8.3-7.2,15-3.7c20.4,10.8,41.5,20.3,61.4,31.9c27.8,16.2,56.5,20.2,87.6,12.5
		c19.5-4.8,39.3-8.2,58.8-12.3c6.4,23.9,6.4,24,31.3,21.2c7.5-0.8,14.9-2.3,22.7-3.6c-7.7-51.9-15.2-102.3-22.8-153.2
		c-8.4,3.8-18.7,1.6-25.8,4.7c-23,10-41.5,2.1-59-12.5c-3.4-2.8-7.5-4.8-11.3-7.2c-19.4-12.4-39-24.6-58.1-37.5
		C235.4,98.3,220.2,87,204.3,75.8z M76.7,289.6c-1.8,4.3-3.4,7.1-4.1,10c-4,16.6-8,33.3-11.6,50c-0.4,1.8,1.3,5.3,2.7,5.7
		c1.6,0.5,4.3-1.2,6-2.5c6.3-4.9,12.3-10,18.4-15c9.2-7.4,18.5-14.8,29.1-23.2C102.4,305.6,90,297.8,76.7,289.6z M256.5,85.8
		c8.7-20.4,7.4-33.7-3-39.7c-8.7-5-24.8,2.4-34.4,16.3C231.3,70.1,243.5,77.7,256.5,85.8z"/>
	<path fill="#6D4A8A" d="M200.8,80c1.9-2.4,5.4-2.9,7.9-1.1c14.3,10.2,28.2,20.3,42.4,29.9c19.2,12.8,38.7,25,58.1,37.5
		c3.8,2.4,7.5,4.9,11.3,7.2c19.8,11.5,34,16.7,57.6,13.1c2.2-0.3,5.6-2.1,7.8-2.6c10.5-2.2,20.6,5,22.2,15.6
		c5.7,38.6,11.5,77.1,17.3,116.2c1.6,10.5-5.7,20.3-16.2,21.8c-1.2,0.2-2.5,0.3-3.7,0.5c-22.9,2.6-24.7,2.7-29.9-16
		c-0.8-3-3.8-4.8-6.8-4.2c-17.8,3.6-35.8,6.8-53.5,11.2c-31.1,7.7-59.8,3.7-87.6-12.5c-19.9-11.6-41-21-61.4-31.9
		c-6.7-3.6-10.7-3-15,3.7c-5.9,9-12.5,17.5-19.3,26.6c-1.8,2.4-5.1,3-7.7,1.5c-4.8-3-9.3-5.6-13.6-8.6c-11.3-7.8-22.5-13.1-37.6-12
		c-23.5,1.8-40-21.5-31.6-44c12.7-34.1,26.5-67.8,41.2-101c2.7-6,11.6-11.4,18.6-13c22.8-5.3,45.9-9.4,69-12.6
		C185.6,103,191.7,91.4,200.8,80z M261.9,190.8c2.6,11.1-10.5,20.4-23.3,26.2c-2.9,1.3-8,2.5-11.6,1.7c-18.9-4.1-37.7-8.8-56.5-13.6
		c-13.6-3.4-23.7,0.4-28.3,11.1c-4.4,10.4-0.4,18.9,13.2,26c30.2,15.6,60.4,31.1,90.8,46.2c18.7,9.3,38.3,11.9,59,6.6
		c18-4.6,36.1-8.8,54.4-11.9c10.8-1.8,12.9-7.1,11.3-16.7c-3.5-21.1-6.3-42.3-9.8-63.4c-0.6-3.4-2.8-7.6-5.6-9.4
		c-21.2-13.4-42.7-26.3-64.1-39.4c-14.3-8.7-28.6-17.5-43.1-26.4c-2.8-1.7-6.5-0.8-8.1,2.1c-11.6,21-22.4,40.5-33.2,59.9
		c-1.7,3.1-0.3,7,3,8.3c17.7,6.8,20.3,5.9,33-11.2 M161.2,132.5c2.5-4.3-1.1-9.6-6-8.7c-15.5,2.7-30.2,5.4-44.9,7.5
		c-9.2,1.3-14.2,6.1-17.4,14.4c-11.8,30.1-24.3,59.9-35.6,90.2c-1.8,4.8-0.8,12.3,1.9,16.7c7.5,12.6,25.4,11.4,34.2-2.5
		c8-12.6,14.3-26.3,21.8-39.2C130,185.3,145.1,159.8,161.2,132.5z M152.2,178.6c-2.2,3.6,0,8.3,4.2,8.8c8.8,1.2,16.3,2.2,23.9,2.8
		c3,0.2,7.6-1.4,9-3.7c12.2-20.8,24-41.8,36-63.2c3-5.4,1.6-12.2-3.4-15.9c-0.8-0.6-1.5-1.2-2.3-1.8c-8.1-7-14.2-6.9-20.4,3
		c-8.8,14-19.2,27-28.5,40.8C164.3,158.7,158.5,168.3,152.2,178.6z M108.2,267.7c4.3,2.6,8.4,5.1,12.6,7.7c2.6,1.6,6,0.9,7.8-1.6
		c3.9-5.4,7.4-10.4,10.6-14.9c1.4-2,1.4-4.6,0.1-6.6c-3.5-5.3-6.9-10.5-10.5-16c-2.4-3.7-7.9-3.4-10,0.4
		c-4.2,7.7-8.4,15.3-12.8,23.2C104.7,262.6,105.6,266.1,108.2,267.7z"/>
	<path fill="#6D4A8A" d="M88.9,272.4c13.3,8.2,28.1,14.1,42.9,23.3c-7.9,11.7-31.2,32.8-40.4,40.2c-6.2,5-12.2,10.1-18.4,15
		c-1.7,1.3-4.4,3-6,2.5c-1.4-0.4-3-4-2.7-5.7c3.6-16.7,7.5-33.4,11.6-50C76.6,294.6,87.1,276.7,88.9,272.4z"/>
	<path fill="#6D4A8A" d="M248.7,109.6c-13.1-8.2-34.6-23.2-46.8-30.8c9.5-13.9,41.1-36.7,49.7-31.7
		C262.1,53.1,257.4,89.2,248.7,109.6z"/>
	<path display="none" fill="#FFFFFF" d="M257.7,189.1c2-3,1.4-7.1-1.5-9.4c-7.7-6-9.2-4.4-15.8,5.6c-12.9,19.7-12.9,19.7-36.7,10.3
		c12.7-23,25.4-45.8,39.3-71.1c16.4,10,32.3,19.8,48.3,29.6c21.4,13.1,42.9,26,64.1,39.4c2.8,1.8,5,6,5.6,9.4
		c3.5,21.1,6.3,42.3,9.8,63.4c1.6,9.6-0.6,14.8-11.3,16.7c-18.3,3.1-36.4,7.3-54.4,11.9c-20.7,5.3-40.2,2.7-59-6.6
		c-30.4-15.1-60.7-30.6-90.8-46.2c-13.7-7.1-17.7-15.6-13.2-26c4.6-10.7,14.7-14.6,28.3-11.1c18.8,4.7,37.6,9.5,56.5,13.6
		c3.6,0.8,9.7,0,11.6-2.4C245.5,207.6,251.5,198.3,257.7,189.1z"/>
	<path display="none" fill="#FFFFFF" d="M167.6,121.6c-18.5,31.5-35.7,60.3-52.5,89.3c-7.5,12.9-13.8,26.6-21.8,39.2
		c-8.8,13.8-26.6,15-34.2,2.5c-2.7-4.5-3.7-12-1.9-16.7c11.3-30.3,23.8-60.1,35.6-90.2c3.2-8.2,8.2-13.1,17.4-14.4
		C128.9,128.6,147.4,125.1,167.6,121.6z"/>
	<path display="none" fill="#FFFFFF" d="M147.4,186.3c8.3-13.2,15.4-25.3,23.2-36.9c9.3-13.8,19.6-26.8,28.5-40.8
		c6.3-9.9,12.3-10.1,20.4-3c1.7,1.5,3.6,2.8,5.8,4.2c3.1,2.1,4.1,6.2,2.2,9.4c-12.8,22.8-25.3,45.1-38.3,67.3c-1.3,2.3-6,3.9-9,3.7
		C170.2,189.5,160.3,187.9,147.4,186.3z"/>
	<path display="none" fill="#FFFFFF" d="M103.5,264.8c7-12.7,13.4-24.3,20.1-36.6c6.6,10,12,18.2,18,27.4c-4.7,6.6-10,14-16.1,22.6
		C118.2,273.7,111.1,269.5,103.5,264.8z"/>
</g>
</svg>
