<?xml version="1.0" encoding="utf-8"?>
<!-- Generator: Adobe Illustrator 22.1.0, SVG Export Plug-In . SVG Version: 6.00 Build 0)  -->
<svg version="1.1" id="Layer_1" xmlns="http://www.w3.org/2000/svg" xmlns:xlink="http://www.w3.org/1999/xlink" x="0px" y="0px"
	 viewBox="0 0 1636 1804" style="enable-background:new 0 0 1636 1804;" xml:space="preserve">
<style type="text/css">
	.st6{fill:#6D4A8A;}
</style>
<path class="st6" d="M1357.9,858.9c-37.4-17.5-74.8-35.2-112.4-51.8c-14-6.1-20.8-15.5-22.3-30.4c-1.7-15.8-3.8-31.7-7.8-47
	c-3.5-13.8-0.1-23.9,10-33.5c30.7-29.2,61.1-58.7,91.2-88.4c17.6-17.4,21.5-36.7,10-58.4c-14.6-27.7-30.2-55-46.7-81.6
	c-14-22.7-31.8-28.7-57.7-21.7c-39.4,10.6-78.8,20.8-118,32.2c-15,4.3-26.8,2.9-37.9-8.8c-8.9-9.4-18.6-18.6-29.5-25.1
	c-20.2-12-22.4-28.8-19.8-49.9c4.9-38,8.4-76.2,11.8-114.4c2.3-26-6.8-41.5-31.4-51.6c-27.1-11-54.6-21.4-82.4-30.6
	c-29.8-10-46.3-3.7-64.1,21.7c-23.4,33.5-46.9,66.8-69.8,100.7c-7.8,11.6-17.5,16.4-31.4,15.5c-14.9-1-30-1.4-44.8-0.2
	c-16.3,1.3-27.2-4.2-36.1-17.9c-22.6-34.7-46.1-68.6-69.5-102.7c-13.3-19.7-31.6-28.1-52.7-21.4c-32.6,10.3-64.9,22.1-96.7,34.9
	c-20.6,8.4-29.4,27.6-27.1,49.9c4,40.2,7.4,80.3,10.2,109.9c2.3,35.8,2.2,35.6-18,51.7c-10.9,8.6-21.8,17.4-31.8,27.1
	c-10.2,9.8-20.9,11.4-34.2,7.4c-38.2-11.3-76.4-21.8-114.7-32.6c-32.8-9.4-48.5-4-66.8,25.2c-15.1,24-29.2,48.6-42.6,73.6
	c-13.7,25.6-10.4,43,10,63.2c29.3,29.3,58.3,58.7,88.2,87.4c10.2,9.8,13,20.3,9.8,33.6c-3.4,14.5-7.2,29.2-8.2,43.9
	c-1.2,16.8-9.1,25.8-24,32.3c-37.9,16.2-75.5,33.4-113,50.5c-21.2,9.6-33,27.8-30,48.5c4.8,32.9,10.3,65.8,16.9,98.4
	c4.7,23.2,19.1,35.3,42.2,37.6c43.1,4.1,86.3,8,129.5,11.2c13,1,21.2,6.2,27.1,17.4c7.9,15,16.1,29.8,25.2,44
	c7.2,11.3,7.6,21.6,1.7,33.6c-18.6,37.4-36.7,75-54.8,112.8c-11.9,25-8.9,43.6,11.3,62.2c21.2,19.6,43.2,38.4,65.9,56.3
	c26.5,21,42.7,20.8,70.2,1.6c33-23.2,66.1-46.3,98.8-69.8c10.8-7.8,21.1-9,33.5-3.6c14.5,6.4,29.4,12.2,44.6,16.6
	c14.8,4.2,22.1,12.8,25.6,27.6c9.4,40.2,19.8,80.2,30,120.1c6.5,25.7,22.7,38.9,49.2,39.5c30.4,0.6,60.7,0.8,91.1,0.2
	c26.4-0.5,40.8-12.7,47.9-38.6c10.9-40.3,22-80.5,32-121.1c3.5-13.8,10.9-21.4,24.1-25.3c15.2-4.6,30.5-9.5,45-15.8
	c14-6.2,25.2-4.1,37.3,4.9c32.8,24.5,66,48.1,99.2,71.9c22.1,15.8,41.8,16.3,63.1-0.2c23.3-18,46-36.7,68-56
	c23-20.3,26-38.4,12.7-66.7c-17.2-36.5-34.2-73-51.6-109.3c-5.9-12.4-5.9-23.2,2-35c9.5-14,17.9-28.8,25.7-43.7
	c5.9-11.3,13.8-17,26.9-17.8c39.7-2.3,79.4-5.8,119.3-8.4c34.7-2.3,48.7-13,55.9-46.4c6-28.2,10.9-56.6,15-85.2
	C1391.5,885.9,1382.3,870.4,1357.9,858.9z M987.3,1135H814.7V811.9c0-55.6-7.3-94.9-22-118.1c-14.6-23.2-42.1-34.8-82.2-34.8
	c-12.4,0-25.4,0.6-39.4,1.7c-13.9,1.2-26.3,2.5-37.1,4.1v470.2H461.6V546.7c29.3-8.5,67.2-16.4,113.5-23.8
	c46.3-7.3,94.9-11,145.9-11c51.7,0,94.8,6.7,129.1,20.3c34.3,13.6,61.6,32.6,81.6,57.4c20,24.7,34.3,54,42.8,88
	c8.5,34,12.7,71.8,12.7,113.5V1135z"/>
</svg>
